<?xml version="1.0" standalone="no"?>
<!DOCTYPE svg PUBLIC "-//W3C//DTD SVG 20010904//EN"
 "http://www.w3.org/TR/2001/REC-SVG-20010904/DTD/svg10.dtd">
<svg version="1.0" xmlns="http://www.w3.org/2000/svg"
 width="369.000000pt" height="369.000000pt" viewBox="0 0 369.000000 369.000000"
 preserveAspectRatio="xMidYMid meet">

<g transform="translate(0.000000,369.000000) scale(0.100000,-0.100000)"
fill="#000000" stroke="none">
<path d="M2033 3683 c-19 -7 -16 -41 5 -52 22 -12 42 3 42 30 0 13 -23 33 -33
28 -1 0 -8 -3 -14 -6z"/>
<path d="M1240 3595 c-17 -21 -5 -45 24 -45 27 0 42 26 25 46 -15 18 -33 18
-49 -1z"/>
<path d="M1541 3411 c-12 -8 -13 -14 -3 -35 6 -14 15 -26 19 -26 20 1 34 19
31 41 -3 26 -24 34 -47 20z"/>
<path d="M2932 3363 c3 -32 41 -45 51 -19 10 26 -3 46 -30 46 -21 0 -24 -4
-21 -27z"/>
<path d="M734 3315 c-15 -11 -17 -17 -8 -32 15 -25 48 -23 52 3 4 31 -20 47
-44 29z"/>
<path d="M2127 3135 c-19 -19 -13 -41 13 -48 26 -7 47 19 34 41 -15 23 -29 25
-47 7z"/>
<path d="M1474 3115 c-8 -21 2 -45 19 -45 20 0 40 27 33 45 -7 19 -45 20 -52
0z"/>
<path d="M2641 3056 c-16 -20 -3 -46 24 -46 27 0 36 17 23 43 -10 20 -31 22
-47 3z"/>
<path d="M3286 2954 c-7 -19 10 -44 29 -44 7 0 18 7 25 15 10 12 10 18 0 30
-16 20 -46 19 -54 -1z"/>
<path d="M3084 2906 c-10 -26 4 -48 28 -44 17 2 23 10 23 28 0 18 -6 26 -23
28 -13 2 -25 -3 -28 -12z"/>
<path d="M261 2821 c-15 -27 7 -52 37 -40 24 9 29 28 10 47 -17 17 -36 15 -47
-7z"/>
<path d="M949 2734 c-23 -28 17 -68 45 -45 8 7 12 20 9 30 -6 24 -39 33 -54
15z"/>
<path d="M2170 2611 c-7 -15 -6 -23 5 -35 28 -27 69 10 44 40 -16 20 -37 17
-49 -5z"/>
<path d="M2384 2606 c-10 -26 4 -48 28 -44 17 2 23 10 23 28 0 18 -6 26 -23
28 -13 2 -25 -3 -28 -12z"/>
<path d="M1589 2508 c-15 -28 -4 -50 23 -46 32 4 38 53 8 61 -14 3 -24 -1 -31
-15z"/>
<path d="M694 2505 c-9 -23 3 -45 25 -45 23 0 35 28 20 46 -15 18 -38 18 -45
-1z"/>
<path d="M2172 2291 c-23 -14 -10 -46 18 -46 20 0 25 5 25 25 0 26 -20 36 -43
21z"/>
<path d="M3594 2235 c-9 -23 3 -45 26 -45 25 0 37 25 20 45 -16 19 -39 19 -46
0z"/>
<path d="M1823 2223 c-33 -13 1 -68 35 -56 15 6 16 35 0 51 -13 13 -16 13 -35
5z"/>
<path d="M12 2123 c-13 -26 -4 -43 23 -43 30 0 39 14 25 40 -13 25 -36 26 -48
3z"/>
<path d="M3096 2117 c-26 -19 -17 -52 14 -52 18 0 26 6 28 21 4 30 -20 47 -42
31z"/>
<path d="M1041 2026 c-15 -18 -4 -46 19 -46 28 0 45 27 30 45 -16 19 -34 19
-49 1z"/>
<path d="M192 1818 c-17 -17 -15 -36 7 -47 14 -8 22 -7 31 4 26 31 -9 72 -38
43z"/>
<path d="M2387 1814 c-14 -15 -6 -43 14 -49 25 -8 42 6 37 31 -3 19 -38 31
-51 18z"/>
<path d="M2904 1755 c-4 -8 -3 -22 0 -31 8 -21 50 -14 54 10 6 31 -43 50 -54
21z"/>
<path d="M1605 1694 c-11 -12 -12 -20 -5 -35 12 -22 33 -25 49 -5 25 30 -16
67 -44 40z"/>
<path d="M3627 1647 c-9 -25 16 -50 42 -42 32 10 25 49 -10 53 -16 2 -29 -3
-32 -11z"/>
<path d="M732 1638 c-16 -16 -15 -33 4 -48 13 -11 18 -10 35 7 19 19 19 21 4
37 -20 19 -27 20 -43 4z"/>
<path d="M3137 1414 c-14 -15 -6 -43 14 -49 23 -8 41 9 36 35 -2 16 -38 26
-50 14z"/>
<path d="M2693 1403 c-18 -7 -16 -38 3 -53 21 -18 49 9 39 39 -6 21 -18 24
-42 14z"/>
<path d="M1427 1304 c-10 -11 -9 -42 3 -49 20 -12 51 6 48 28 -3 22 -36 35
-51 21z"/>
<path d="M102 1268 c-16 -16 -15 -33 4 -48 21 -18 49 9 39 39 -7 23 -25 27
-43 9z"/>
<path d="M2163 1241 c-10 -16 -8 -22 8 -37 18 -17 21 -17 37 -1 13 13 14 21 6
35 -16 24 -37 26 -51 3z"/>
<path d="M871 1077 c-17 -21 -3 -49 23 -45 15 2 21 10 21 28 0 28 -26 38 -44
17z"/>
<path d="M3394 956 c-10 -26 4 -48 28 -44 17 2 23 10 23 28 0 18 -6 26 -23 28
-13 2 -25 -3 -28 -12z"/>
<path d="M1640 915 c-17 -21 -5 -45 24 -45 29 0 40 24 20 45 -19 19 -28 19
-44 0z"/>
<path d="M2640 915 c-17 -20 -5 -45 20 -45 11 0 23 7 26 15 6 15 -11 45 -26
45 -4 0 -13 -7 -20 -15z"/>
<path d="M2166 721 c-16 -17 -16 -20 -1 -35 22 -22 42 -20 50 4 6 20 -9 50
-25 50 -4 0 -15 -8 -24 -19z"/>
<path d="M457 653 c-13 -12 -7 -51 8 -57 40 -15 63 33 26 54 -23 12 -26 12
-34 3z"/>
<path d="M940 641 c-7 -15 -6 -23 6 -35 21 -21 31 -20 45 6 10 18 8 24 -7 35
-24 18 -31 17 -44 -6z"/>
<path d="M3024 475 c-8 -21 2 -45 19 -45 20 0 40 27 33 45 -7 19 -45 20 -52 0z"/>
<path d="M1640 416 c-18 -22 -5 -46 25 -46 23 0 26 4 23 27 -3 32 -29 41 -48
19z"/>
<path d="M2140 316 c-18 -22 -5 -48 22 -44 17 2 23 10 23 28 0 29 -26 38 -45
16z"/>
<path d="M2524 185 c-9 -23 3 -45 25 -45 25 0 34 14 26 40 -7 23 -43 27 -51 5z"/>
<path d="M1150 175 c-16 -19 -8 -49 14 -53 25 -5 39 12 32 36 -9 26 -31 35
-46 17z"/>
<path d="M1850 46 c-18 -22 -5 -46 25 -46 23 0 26 4 23 27 -3 32 -29 41 -48
19z"/>
</g>
</svg>
